<?xml version="1.0" standalone="no"?>
<!DOCTYPE svg PUBLIC "-//W3C//DTD SVG 20010904//EN"
 "http://www.w3.org/TR/2001/REC-SVG-20010904/DTD/svg10.dtd">
<svg version="1.0" xmlns="http://www.w3.org/2000/svg"
 width="500.000000pt" height="500.000000pt" viewBox="0 0 500.000000 500.000000"
 preserveAspectRatio="xMidYMid meet">

<g transform="translate(0.000000,500.000000) scale(0.100000,-0.100000)"
fill="#000000" stroke="none">
<path d="M2364 4369 c-270 -24 -578 -125 -794 -261 -140 -88 -174 -114 -281
-216 -240 -229 -409 -503 -503 -812 -48 -159 -58 -227 -63 -430 -6 -226 6
-361 33 -392 30 -32 212 -148 291 -185 159 -73 380 -123 548 -123 65 0 298 29
306 38 3 4 2 57 -2 117 -5 64 -5 164 1 239 l10 128 -60 65 c-111 122 -307 518
-396 803 l-33 105 -1 -111 c-1 -330 129 -606 364 -774 l77 -55 -42 -3 c-102
-8 -283 60 -386 144 -55 46 -129 157 -160 241 -65 178 -45 423 57 718 17 50
35 93 39 97 13 14 194 -121 353 -264 49 -44 140 -180 169 -254 20 -51 24 -76
24 -185 l0 -125 -38 -78 -39 -77 42 -55 c36 -47 60 -67 60 -48 0 3 11 47 24
97 33 123 86 247 146 343 41 64 50 87 50 124 0 69 37 198 73 259 18 30 64 87
103 126 113 114 217 159 668 291 83 24 151 42 152 41 4 -4 -16 -259 -26 -347
-24 -191 -77 -348 -151 -447 -48 -64 -162 -144 -250 -174 -54 -19 -94 -23
-254 -29 -205 -6 -225 -11 -276 -67 -51 -54 -105 -187 -134 -333 -18 -87 -31
-428 -17 -448 7 -11 19 -9 59 11 57 29 198 124 293 197 36 27 84 60 108 72 26
14 42 30 42 41 0 11 14 32 31 48 34 32 78 38 135 17 29 -10 38 -8 100 27 106
59 153 93 232 169 130 125 227 267 327 479 41 87 115 308 130 390 7 37 7 37
57 37 l51 0 -7 -42 c-23 -146 -142 -459 -228 -601 -153 -253 -328 -427 -518
-518 -75 -35 -87 -45 -102 -80 -26 -60 -93 -84 -152 -54 -29 15 -31 15 -110
-39 -45 -31 -117 -83 -161 -117 -133 -102 -322 -182 -506 -216 -137 -25 -353
-22 -489 6 -197 41 -366 109 -508 205 -29 19 -52 31 -52 26 0 -15 45 -132 68
-177 18 -35 34 -46 124 -90 174 -86 365 -132 578 -140 166 -6 276 8 455 58
138 39 279 110 295 150 20 47 47 64 101 64 59 0 96 -31 106 -88 15 -92 -75
-157 -158 -113 -24 12 -34 10 -120 -31 -211 -100 -380 -137 -629 -137 -132 0
-188 4 -280 23 -124 24 -266 69 -342 107 l-48 24 10 -25 c13 -35 80 -132 161
-236 l67 -85 104 14 c236 31 453 -6 717 -123 104 -46 224 -82 299 -90 31 -4
113 -2 181 3 112 9 130 13 200 47 42 20 105 51 141 68 36 17 82 41 103 54 l37
23 0 286 0 285 53 -3 52 -3 3 -247 c1 -137 6 -248 11 -248 24 0 128 43 139 57
9 13 12 99 12 350 l0 333 55 0 55 0 0 -335 0 -335 63 0 62 0 -3 500 -3 500 51
0 51 0 -1 -507 -1 -508 33 -12 c18 -7 42 -12 53 -12 20 -1 20 5 17 756 -3 735
-3 757 -22 770 -11 8 -25 31 -31 52 -23 77 44 152 124 137 47 -9 87 -56 87
-102 0 -40 -22 -89 -45 -97 -13 -6 -15 -91 -15 -755 l0 -749 -22 -10 c-23 -10
-23 -10 7 -25 44 -23 110 -32 134 -18 12 6 30 29 41 51 l21 40 -23 -15 c-49
-32 -49 -35 -48 504 0 277 2 505 4 508 2 2 25 0 50 -3 l47 -7 -3 -484 c-2
-266 0 -484 3 -484 9 0 77 108 127 200 154 287 216 593 192 946 -17 233 -64
404 -174 631 -35 72 -82 158 -104 192 -105 157 -289 361 -412 454 -279 211
-603 335 -956 366 -131 12 -139 12 -270 0z m1622 -1583 c40 -40 45 -83 14
-133 -23 -39 -83 -60 -126 -46 -36 12 -74 66 -74 105 0 35 24 83 47 97 10 6
38 11 62 11 36 0 49 -6 77 -34z m-415 -5 c40 -40 41 -105 3 -150 -23 -28 -32
-31 -80 -31 -46 0 -59 4 -78 25 -31 34 -39 69 -26 111 26 77 124 101 181 45z
m-218 -331 c20 -23 27 -40 27 -73 -1 -115 -152 -150 -205 -47 -19 37 -19 54 1
96 34 71 124 83 177 24z m-278 -232 c51 -49 51 -104 0 -155 -32 -32 -40 -35
-76 -30 -106 14 -142 145 -55 198 48 29 90 25 131 -13z m-325 -113 c35 -18 60
-62 60 -106 0 -22 -10 -41 -34 -65 -92 -92 -229 10 -175 130 13 27 61 55 97
56 13 0 36 -7 52 -15z m10 -479 c0 -263 -1 -270 -49 -290 -63 -25 -64 -20 -69
259 l-5 245 62 0 61 0 0 -214z m-280 -120 c0 -170 -2 -196 -17 -214 -25 -29
-58 -36 -77 -17 -14 14 -16 47 -16 221 l0 204 55 0 55 0 0 -194z m-265 32 c52
-46 49 -126 -7 -173 -25 -21 -38 -25 -62 -21 -132 26 -128 216 4 216 26 0 47
-7 65 -22z"/>
<path d="M2871 3590 c-52 -38 -126 -88 -165 -111 -234 -137 -373 -260 -464
-409 -79 -128 -70 -135 49 -38 56 46 136 109 178 141 184 140 310 251 385 341
62 74 119 146 114 146 -1 -1 -45 -32 -97 -70z"/>
<path d="M3267 1440 c-104 -22 -194 -62 -369 -167 -218 -129 -382 -167 -607
-143 -136 14 -199 32 -368 106 -203 89 -273 106 -448 111 -82 3 -168 1 -189
-4 l-40 -9 96 -84 c247 -220 583 -367 948 -416 251 -33 498 -8 767 77 229 72
456 201 632 360 56 50 101 93 101 97 0 9 -198 60 -300 78 -97 17 -117 16 -223
-6z"/>
</g>
</svg>
